<?xml version="1.0" encoding="UTF-8"?>
<svg id="Layer_1" data-name="Layer 1" xmlns="http://www.w3.org/2000/svg" viewBox="0 0 1920 464.44">
  <defs>
    <style>
      .cls-1, .cls-2 {
        fill: #fff;
      }

      .cls-2 {
        stroke: #000;
        stroke-miterlimit: 10;
      }
    </style>
  </defs>
  <path class="cls-1" d="M50.77,69.57v323.65h323.65V69.57H50.77ZM227.28,351.82v-21.23h-29.38v21.23h-105.74v-105.74h20.05v-29.38h-20.05v-105.74h105.74v20.05h29.38v-20.05h105.74v105.74h-20.05v29.38h20.05v105.74h-105.74Z"/>
  <g>
    <path class="cls-1" d="M431.36,394.03v-154.39h95.51v28.76h-61.7v32.78h58.32v28.76h-58.32v35.32h63.18v28.76h-96.99Z"/>
    <path class="cls-1" d="M556.45,394.03v-129.43h-13.73v-24.96h47.75v154.39h-34.02Z"/>
    <path class="cls-1" d="M614.34,338.2v-4.23c0-30.88,21.13-59.85,58.95-59.85s57.69,28.13,57.69,59.43v11.42h-84.52c2.11,15.65,10.99,25.59,28.1,25.59,12.26,0,20.5-5.08,23.24-12.48h31.06c-5.07,23.69-25.36,39.97-54.31,39.97-39.51,0-60.22-30.03-60.22-59.85ZM646.67,325.72h52.19c-2.32-15.23-10.99-24.11-25.57-24.11s-23.88,8.46-26.62,24.11Z"/>
    <path class="cls-1" d="M746.19,338.41v-4.02c0-31.51,20.5-60.27,58.95-60.27,31.06,0,53.25,19.46,54.94,47.58h-33.17c-1.06-10.36-8.45-18.61-21.76-18.61-17.12,0-25.15,13.54-25.15,33.42s7.18,32.57,25.36,32.57c13.52,0,21.13-7.61,22.61-19.25h32.96c-1.48,28.76-24.51,48.22-55.57,48.22-39.94,0-59.17-29.4-59.17-59.64Z"/>
    <path class="cls-1" d="M935.09,395.51c-34.87,0-49.02-11.63-49.02-46.74v-45.89h-17.54v-24.74h17.54v-31.3h31.48v31.3h33.81v24.74h-33.81v47.16c0,10.79,5.92,16.92,16.69,16.92h17.12v28.55h-16.27Z"/>
    <path class="cls-1" d="M974.17,394.03v-115.9h26.84v38.28c2.96-25.38,16.69-39.76,40.15-39.76h4.44v29.19h-8.45c-18.81,0-29.16,10.57-29.16,29.19v59h-33.81Z"/>
    <path class="cls-1" d="M1068.62,394.03v-90.94h-15.43v-24.96h49.23v115.9h-33.81ZM1063.13,249.16c0-10.36,5.92-17.76,18.59-17.76s18.59,7.4,18.59,17.76-5.92,17.55-18.59,17.55-18.59-7.4-18.59-17.55Z"/>
    <path class="cls-1" d="M1126.52,338.41v-4.02c0-31.51,20.5-60.27,58.95-60.27,31.06,0,53.25,19.46,54.94,47.58h-33.17c-1.06-10.36-8.45-18.61-21.76-18.61-17.12,0-25.15,13.54-25.15,33.42s7.18,32.57,25.36,32.57c13.52,0,21.13-7.61,22.61-19.25h32.96c-1.48,28.76-24.51,48.22-55.57,48.22-39.94,0-59.17-29.4-59.17-59.64Z"/>
  </g>
  <g>
    <path class="cls-1" d="M1280.6,395.33v-57.84h14.14v57.84h-14.14Z"/>
    <path class="cls-1" d="M1309.05,395.33v-57.84h23.19l23.71,47.31h1.21v-47.31h13.28v57.84h-23.36l-23.71-47.31h-1.21v47.31h-13.1Z"/>
    <path class="cls-1" d="M1381.21,367.12v-1.74c0-14.34,10-29.64,31.81-29.64,17.16,0,28.62,9.35,30.17,23.22h-14.23c-1.21-6.89-7.41-11.09-15.95-11.09-11.21,0-17.5,7.45-17.5,18.46s6.38,18.38,17.93,18.38c8.71,0,15.26-4.12,16.55-11.01h14.14c-1.55,12.76-12.67,23.14-30.69,23.14-22.76,0-32.24-16.64-32.24-29.71Z"/>
    <path class="cls-1" d="M1449.92,395.33v-14.18h15.17v14.18h-15.17Z"/>
  </g>
  <g>
    <path class="cls-1" d="M503.84,173.74v36.56h-72.48V69.35h159.32v47.33h-86.85v14.16h86.85v42.89h-86.85Z"/>
    <path class="cls-1" d="M605.89,210.29V69.35h72.48v91.07h61.7v49.87h-134.18Z"/>
    <path class="cls-1" d="M876.99,210.29l-5.07-18.17h-47.12l-5.07,18.17h-73.96l45.01-140.94h114.74l44.37,140.94h-72.9ZM848.88,109.08l-15.21,44.59h29.79l-14.58-44.59Z"/>
    <path class="cls-1" d="M1076.24,210.29l-17.75-64.24-17.96,64.24h-69.1l-39.51-140.94h72.9l14.58,69.73,16.9-69.73h47.75l15.64,67.41,15-67.41h71.42l-39.09,140.94h-70.79Z"/>
    <path class="cls-1" d="M1199.64,210.29V69.35h72.48v91.07h61.7v49.87h-134.18Z"/>
    <path class="cls-1" d="M1347.96,210.29V69.35h161.65v45.22h-89.17v13.1h89.17v33.81h-89.17v11.83h89.17v36.98h-161.65Z"/>
    <path class="cls-1" d="M1527.35,167.4c31.7,4.86,53.67,6.76,78.82,6.76,6.34,0,9.72-2.11,9.72-6.34,0-3.59-2.32-4.86-9.93-4.86h-11.83c-5.71,0-18.38-.85-26.62-1.69-17.75-1.9-28.53-6.76-35.71-16.06-5.49-6.97-8.24-16.27-8.24-27.05,0-16.06,5.71-28.95,16.69-37.19,12.47-9.3,37.4-14.58,70.15-14.58,24.93,0,50.5,2.32,74.38,6.97v41.42c-10.78-1.9-39.73-4.44-56.84-4.86h-15.85c-9.72,0-13.52,1.9-13.52,6.34,0,3.59,2.96,5.71,7.82,5.71l25.36.21c14.58.21,28.1,2.11,36.34,5.28,13.31,5.07,22.19,19.02,22.19,35.08s-8.24,29.79-21.98,38.46c-14.79,9.3-30.43,12.26-62.76,12.26-28.53,0-47.97-1.69-78.18-7.18v-38.67Z"/>
    <path class="cls-1" d="M1706.32,167.4c31.7,4.86,53.67,6.76,78.82,6.76,6.34,0,9.72-2.11,9.72-6.34,0-3.59-2.32-4.86-9.93-4.86h-11.83c-5.71,0-18.38-.85-26.62-1.69-17.75-1.9-28.53-6.76-35.71-16.06-5.49-6.97-8.24-16.27-8.24-27.05,0-16.06,5.71-28.95,16.69-37.19,12.47-9.3,37.4-14.58,70.15-14.58,24.93,0,50.5,2.32,74.38,6.97v41.42c-10.78-1.9-39.73-4.44-56.84-4.86h-15.85c-9.72,0-13.52,1.9-13.52,6.34,0,3.59,2.96,5.71,7.82,5.71l25.36.21c14.58.21,28.1,2.11,36.34,5.28,13.31,5.07,22.19,19.02,22.19,35.08s-8.24,29.79-21.98,38.46c-14.79,9.3-30.43,12.26-62.76,12.26-28.53,0-47.97-1.69-78.18-7.18v-38.67Z"/>
  </g>
  <polygon class="cls-2" points="297.18 134.23 168.81 213.54 203.23 233.66 125.21 328.7 274.2 220.33 236.16 198.1 297.18 134.23"/>
</svg>